HIERARCHY
ROOT root
{
	OFFSET	0	13.1	24.9
	CHANNELS 6  Xposition Yposition Zposition Xrotation Yrotation Zrotation
	JOINT spine_1
	{
		OFFSET	0	9.99999	0
		CHANNELS 3  Xrotation Yrotation Zrotation
		JOINT spine_2
		{
			OFFSET	0	112	-10
			CHANNELS 3  Xrotation Yrotation Zrotation
			JOINT spine_3
			{
				OFFSET	0	206.5	19.3
				CHANNELS 3  Xrotation Yrotation Zrotation
				JOINT spine_4
				{
					OFFSET	0	110.4	14.6
					CHANNELS 3  Xrotation Yrotation Zrotation
					JOINT neck_1
					{
						OFFSET	0	71.8	-50.3
						CHANNELS 3  Xrotation Yrotation Zrotation
						JOINT neck_2
						{
							OFFSET	0	86.2	-25.8
							CHANNELS 3  Xrotation Yrotation Zrotation
							JOINT head_ee
							{
								OFFSET	0	179.8	-8.7
								CHANNELS 3  Xrotation Yrotation Zrotation
								End Site
								{
									OFFSET	1	0	0
								}
							}
						}
					}
					JOINT left_clavicle
					{
						OFFSET	-43.2	22.4	-70.8
						CHANNELS 3  Xrotation Yrotation Zrotation
						JOINT left_shoulder
						{
							OFFSET	-93.9	-5.79999	48.7
							CHANNELS 3  Xrotation Yrotation Zrotation
							JOINT left_elbow
							{
								OFFSET	-291.4	-30.8	15.2
								CHANNELS 3  Xrotation Yrotation Zrotation
								JOINT left_lowarm_twist
								{
									OFFSET	-110.7	-3.89999	13.6
									CHANNELS 3  Xrotation Yrotation Zrotation
									JOINT left_hand
									{
										OFFSET	-110.7	-3.89999	13.6
										CHANNELS 3  Xrotation Yrotation Zrotation
										JOINT left_ee
										{
											OFFSET	-80.8	-5.10001	12.1
											CHANNELS 3  Xrotation Yrotation Zrotation
											End Site
											{
												OFFSET	1	0	0
											}
										}
									}
								}
							}
						}
					}
					JOINT right_clavicle
					{
						OFFSET	43.2	22.4	-70.8
						CHANNELS 3  Xrotation Yrotation Zrotation
						JOINT right_shoulder
						{
							OFFSET	93.9	-5.79999	48.7
							CHANNELS 3  Xrotation Yrotation Zrotation
							JOINT right_elbow
							{
								OFFSET	291.4	-30.8	15.2
								CHANNELS 3  Xrotation Yrotation Zrotation
								JOINT right_lowarm_twist
								{
									OFFSET	110.7	-3.89999	13.6
									CHANNELS 3  Xrotation Yrotation Zrotation
									JOINT right_hand
									{
										OFFSET	110.7	-3.89999	13.6
										CHANNELS 3  Xrotation Yrotation Zrotation
										JOINT right_ee
										{
											OFFSET	80.8	-5.10001	12.1
											CHANNELS 3  Xrotation Yrotation Zrotation
											End Site
											{
												OFFSET	1	0	0
											}
										}
									}
								}
							}
						}
					}
				}
			}
		}
	}
	JOINT left_hip
	{
		OFFSET	-82.8	-127.5	0.300001
		CHANNELS 3  Xrotation Yrotation Zrotation
		JOINT left_knee
		{
			OFFSET	-28.2	-396.7	2.2
			CHANNELS 3  Xrotation Yrotation Zrotation
			JOINT left_ankle
			{
				OFFSET	-11.7	-411.3	35.4
				CHANNELS 3  Xrotation Yrotation Zrotation
				JOINT left_toes
				{
					OFFSET	0	-60	-88.6
					CHANNELS 3  Xrotation Yrotation Zrotation
					JOINT left_foot_ee
					{
						OFFSET	-22.5	-16.5	-42.2
						CHANNELS 3  Xrotation Yrotation Zrotation
						End Site
						{
							OFFSET	1	0	0
						}
					}
				}
			}
		}
	}
	JOINT right_hip
	{
		OFFSET	82.8	-127.5	0.300001
		CHANNELS 3  Xrotation Yrotation Zrotation
		JOINT right_knee
		{
			OFFSET	28.2	-396.7	2.2
			CHANNELS 3  Xrotation Yrotation Zrotation
			JOINT right_ankle
			{
				OFFSET	11.7	-411.3	35.4
				CHANNELS 3  Xrotation Yrotation Zrotation
				JOINT right_toes
				{
					OFFSET	0	-60	-88.6
					CHANNELS 3  Xrotation Yrotation Zrotation
					JOINT right_foot_ee
					{
						OFFSET	22.5	-16.5	-42.2
						CHANNELS 3  Xrotation Yrotation Zrotation
						End Site
						{
							OFFSET	1	0	0
						}
					}
				}
			}
		}
	}
}
MOTION
Frames: 7
Frame Time: 0.02
3106.85 681.452 -1605.08 -7.32791 60.9227 0.561871 1.52007 1.16277 4.32005 1.53001 0.885791 4.38512 1.59955 0.0703053 4.47296 1.57248 0.77515 4.40598 3.63453 17.9821 -5.9164 5.61315 36.2601 -6.15086 -0.0 0.0 -0.0 -3.75495 23.6501 -2.39423 -23.5912 -6.47629 65.7305 0.684793 -18.7384 0.11299 3.07276 0.0980842 -0.380173 0.323846 1.90462 2.95266 -0.0 0.0 -0.0 13.7864 26.0124 -27.502 20.8104 26.9969 -79.9071 1.7167 40.3744 -0.631228 34.3717 0.0893287 4.32471 3.20172 2.72215 -20.8246 0.0 0.0 0.0 15.0423 -5.39627 -5.99284 6.70552 -0.333606 -0.973964 14.4485 16.4839 -2.04474 -31.6653 0.0 0.0 -0.0 0.0 -0.0 -27.3625 22.9044 14.7471 -3.95015 -0.142365 -0.589392 16.4127 4.87604 2.32981 -39.2612 0.0 0.0 0.0 0.0 0.0 
3073.89 707.854 -1609.99 -3.5234 60.7839 -2.43365 1.38361 1.1364 4.444 1.39419 0.851609 4.50712 1.46338 0.0033696 4.58671 1.43477 0.726959 4.52886 3.45848 17.3414 -6.97135 5.4706 36.0502 -7.3398 -0.0 0.0 -0.0 -3.36887 22.9179 -2.01722 -22.5264 -6.59822 63.5464 0.664582 -18.2224 0.106583 2.74647 0.0886395 -0.339564 0.160831 2.06085 1.93398 -0.0 0.0 -0.0 13.8334 26.7424 -27.5203 14.5597 25.8598 -79.1146 1.64905 39.2419 -0.587915 34.1125 0.0789562 4.29324 2.84562 2.50153 -18.3735 0.0 0.0 0.0 12.6801 -2.93038 -5.28952 6.98078 -0.349725 -1.01308 17.9702 15.7981 -2.50342 -33.1098 0.0 0.0 -0.0 0.0 -0.0 -28.4742 22.8884 15.4374 -6.91096 -0.222236 -1.0367 11.931 3.70664 1.71847 -39.0571 0.0 0.0 0.0 0.0 0.0 
3046.25 707.662 -1607.31 -2.4149 60.3625 -3.33783 1.34389 1.12638 4.60713 1.35531 0.831264 4.66928 1.42547 -0.0498637 4.74228 1.39478 0.698878 4.69088 3.27793 17.4371 -6.95564 5.2791 36.2339 -7.26238 -0.0 0.0 -0.0 -3.38732 23.1801 -1.98793 -21.0587 -7.05939 63.1372 0.689909 -18.8685 0.114639 1.76004 0.0586798 -0.217128 -0.0246755 2.12669 0.72991 -0.0 0.0 -0.0 14.0349 27.7878 -27.8508 12.197 25.1641 -78.6863 1.58622 38.1563 -0.548631 33.7881 0.066181 4.2538 2.22076 0.416238 -14.8442 0.0 0.0 0.0 9.07916 -0.647611 -3.04941 5.33435 -0.256128 -0.778018 21.2841 14.9229 -2.9163 -32.3924 0.0 0.0 -0.0 0.0 -0.0 -27.7528 23.637 15.0667 -10.1976 -0.283694 -1.53723 10.6635 3.21683 1.54078 -40.2124 0.0 0.0 0.0 0.0 0.0 
3027.1 700.614 -1597.08 -2.65232 60.1484 -3.76737 1.38826 1.13179 4.69491 1.40014 0.831099 4.75722 1.47147 -0.062486 4.8287 1.43963 0.700016 4.77822 3.03334 17.6149 -6.9287 5.02728 36.5625 -7.15083 -0.0 0.0 -0.0 -3.4641 23.077 -2.11631 -19.5777 -7.58751 62.7677 0.724125 -19.7334 0.125948 0.355074 0.0123756 -0.0436592 -0.152145 2.18499 -0.0913871 -0.0 0.0 -0.0 14.1084 27.6288 -28.0442 10.8083 24.4682 -78.1433 1.539 37.3185 -0.519731 33.3245 0.0483103 4.1973 1.37173 -1.80636 -9.92541 0.0 0.0 0.0 8.0788 2.11417 -2.18401 5.60322 -0.270949 -0.816584 22.3488 14.1202 -3.04155 -32.9353 0.0 0.0 -0.0 0.0 -0.0 -27.0038 24.901 14.8216 -14.955 -0.321607 -2.26598 9.91199 2.74804 1.43395 -40.2049 0.0 0.0 0.0 0.0 0.0 
3007.69 693.273 -1594.38 -1.26659 59.4578 -4.61429 1.38461 1.08548 4.72914 1.39671 0.782708 4.78844 1.46442 -0.116595 4.85044 1.43219 0.650003 4.8082 2.58197 17.8304 -7.1566 4.58646 37.2004 -7.26893 -0.0 0.0 -0.0 -3.17806 22.8392 -1.7673 -16.4253 -8.58832 62.3748 0.781691 -21.1677 0.146063 -1.51688 -0.05591 0.185633 -0.336262 2.29902 -1.26444 -0.0 0.0 -0.0 14.2953 27.3554 -28.5188 9.03281 23.9794 -77.9971 1.53367 37.2226 -0.516501 32.7646 0.0273371 4.12888 0.217923 -4.78561 -3.43637 0.0 0.0 0.0 6.85621 5.90824 -0.941369 5.9672 -0.291302 -0.868681 23.8594 12.9662 -3.21616 -33.7261 0.0 0.0 -0.0 0.0 -0.0 -26.4385 26.6963 14.8146 -21.7651 -0.27049 -3.30903 8.82112 2.07584 1.27841 -39.9079 0.0 0.0 0.0 0.0 0.0 
2985.82 699.491 -1584.64 0.299264 58.7389 -6.92936 1.25907 1.04032 4.88159 1.27203 0.727978 4.9377 1.33756 -0.209319 4.98657 1.30335 0.579855 4.95723 1.49252 18.5481 -6.76752 3.38035 38.3257 -6.41685 -0.0 0.0 -0.0 -3.15661 22.7784 -1.74971 -13.8469 -9.31124 62.3201 0.852285 -22.8891 0.172544 -3.40711 -0.132437 0.41481 -0.59604 2.56317 -2.87435 -0.0 0.0 -0.0 14.0263 27.2815 -27.8998 5.79147 23.3318 -77.3725 1.5261 37.0863 -0.511932 32.0382 0.00112538 4.03981 -0.59156 -8.33212 0.361589 0.0 0.0 0.0 6.95772 7.0164 0.363138 6.53438 -0.323679 -0.949607 23.5574 11.4992 -3.17241 -35.3582 0.0 0.0 -0.0 0.0 -0.0 -25.5479 29.5501 15.6944 -27.5739 -0.129317 -4.1889 7.47006 1.13258 1.08462 -39.8626 0.0 0.0 0.0 0.0 0.0 
2968.82 702.375 -1572.38 0.561166 58.0602 -8.40837 1.09251 1.0444 4.92803 1.10572 0.729102 4.9843 1.17262 -0.231476 5.03191 1.13775 0.565107 5.0055 -0.230303 19.0651 -5.49968 1.24693 38.5202 -4.29381 -0.0 0.0 -0.0 -3.19118 22.3665 -1.88189 -11.0038 -10.2653 61.8777 0.956474 -25.3516 0.215131 -4.72544 -0.190273 0.573118 -0.756578 2.77882 -3.8459 -0.0 0.0 -0.0 13.8221 27.0906 -27.4489 3.12787 22.6159 -76.53 1.47871 36.2208 -0.483637 31.0699 -0.0320499 3.92059 -1.32012 -11.7013 3.54391 0.0 0.0 0.0 7.04743 8.76408 2.47575 0.787984 -0.0332489 -0.116348 27.3114 9.38991 -3.59873 -34.7838 0.0 0.0 -0.0 0.0 -0.0 -24.0385 33.1829 16.6204 -32.2146 0.0471091 -4.87904 5.90545 -0.731995 0.857729 -40.1295 0.0 0.0 0.0 0.0 0.0 
